<?xml version="1.0" encoding="UTF-8" standalone="no"?>
<!-- Created with Inkscape (http://www.inkscape.org/) -->

<svg
   xmlns:dc="http://purl.org/dc/elements/1.1/"
   xmlns:cc="http://creativecommons.org/ns#"
   xmlns:rdf="http://www.w3.org/1999/02/22-rdf-syntax-ns#"
   xmlns:svg="http://www.w3.org/2000/svg"
   xmlns="http://www.w3.org/2000/svg"
   xmlns:sodipodi="http://sodipodi.sourceforge.net/DTD/sodipodi-0.dtd"
   xmlns:inkscape="http://www.inkscape.org/namespaces/inkscape"
   width="11.493mm"
   height="11.209mm"
   viewBox="0 0 11.493 11.209"
   version="1.1"
   id="svg202"
   inkscape:version="0.92.4 (5da689c313, 2019-01-14)"
   sodipodi:docname="github_logo.svg">
  <defs
     id="defs196">
    <filter
       style="color-interpolation-filters:sRGB;"
       inkscape:label="Silhouette"
       id="filter216">
      <feFlood
         flood-opacity="1"
         flood-color="rgb(0,0,0)"
         result="flood"
         id="feFlood210" />
      <feComposite
         in="flood"
         in2="SourceGraphic"
         operator="in"
         result="composite"
         id="feComposite212" />
      <feGaussianBlur
         stdDeviation="0.01"
         id="feGaussianBlur214"
         result="fbSourceGraphic" />
      <feColorMatrix
         result="fbSourceGraphicAlpha"
         in="fbSourceGraphic"
         values="0 0 0 -1 0 0 0 0 -1 0 0 0 0 -1 0 0 0 0 1 0"
         id="feColorMatrix218" />
      <feFlood
         id="feFlood220"
         flood-opacity="1"
         flood-color="rgb(255,255,255)"
         result="flood"
         in="fbSourceGraphic" />
      <feComposite
         in2="fbSourceGraphic"
         id="feComposite222"
         in="flood"
         operator="in"
         result="composite" />
      <feGaussianBlur
         id="feGaussianBlur224"
         stdDeviation="0.01" />
    </filter>
  </defs>
  <sodipodi:namedview
     id="base"
     pagecolor="#ffffff"
     bordercolor="#666666"
     borderopacity="1.0"
     inkscape:pageopacity="0.0"
     inkscape:pageshadow="2"
     inkscape:zoom="7.9195959"
     inkscape:cx="102.06901"
     inkscape:cy="10.943401"
     inkscape:document-units="mm"
     inkscape:current-layer="layer1"
     showgrid="false"
     inkscape:window-width="1920"
     inkscape:window-height="1017"
     inkscape:window-x="-8"
     inkscape:window-y="-8"
     inkscape:window-maximized="1" />
  <metadata
     id="metadata199">
    <rdf:RDF>
      <cc:Work
         rdf:about="">
        <dc:format>image/svg+xml</dc:format>
        <dc:type
           rdf:resource="http://purl.org/dc/dcmitype/StillImage" />
        <dc:title></dc:title>
      </cc:Work>
    </rdf:RDF>
  </metadata>
  <g
     inkscape:label="Ebene 1"
     inkscape:groupmode="layer"
     id="layer1"
     transform="translate(0,-285.791)">
    <path
       inkscape:connector-curvature="0"
       id="path198"
       style="fill:#ffffff;fill-opacity:1;fill-rule:evenodd;stroke:none;stroke-width:0.35277775;filter:url(#filter216)"
       d="M 5.74605,285.79053 C 2.57281,285.79053 0,288.36334 0,291.53728 c 0,2.53895 1.64642,4.69265 3.92995,5.45289 0.28751,0.0526 0.39229,-0.12488 0.39229,-0.27728 0,-0.13618 -0.005,-0.49777 -0.008,-0.9772 -1.59844,0.34713 -1.9357,-0.77046 -1.9357,-0.77046 -0.26141,-0.66393 -0.63817,-0.84067 -0.63817,-0.84067 -0.52176,-0.35631 0.0395,-0.34925 0.0395,-0.34925 0.57679,0.0406 0.88018,0.59231 0.88018,0.59231 0.51259,0.87806 1.34514,0.62442 1.67252,0.47731 0.0522,-0.37112 0.20038,-0.62442 0.36477,-0.768 -1.276,-0.14499 -2.61761,-0.63817 -2.61761,-2.84021 0,-0.62724 0.22401,-1.14018 0.59161,-1.54199 -0.0593,-0.14535 -0.25647,-0.72955 0.0561,-1.52083 0,0 0.4826,-0.15452 1.58044,0.58914 0.45826,-0.12771 0.95004,-0.19121 1.43863,-0.19332 0.48789,0.002 0.97967,0.0656 1.43863,0.19332 1.09714,-0.74366 1.57868,-0.58914 1.57868,-0.58914 0.31362,0.79128 0.11642,1.37548 0.0571,1.52083 0.3683,0.40181 0.5909,0.91475 0.5909,1.54199 0,2.20768 -1.34373,2.69346 -2.62396,2.83562 0.20638,0.17745 0.39017,0.52811 0.39017,1.06434 0,0.76799 -0.007,1.38782 -0.007,1.57621 0,0.15381 0.10337,0.33267 0.39512,0.27657 2.28177,-0.76164 3.92677,-2.91394 3.92677,-5.45218 0,-3.17394 -2.57316,-5.74675 -5.7471,-5.74675" />
  </g>
</svg>
