<?xml version="1.0" encoding="UTF-8" standalone="no"?>
<!-- Created with Inkscape (http://www.inkscape.org/) -->

<svg
   xmlns:dc="http://purl.org/dc/elements/1.1/"
   xmlns:cc="http://creativecommons.org/ns#"
   xmlns:rdf="http://www.w3.org/1999/02/22-rdf-syntax-ns#"
   xmlns:svg="http://www.w3.org/2000/svg"
   xmlns="http://www.w3.org/2000/svg"
   xmlns:sodipodi="http://sodipodi.sourceforge.net/DTD/sodipodi-0.dtd"
   xmlns:inkscape="http://www.inkscape.org/namespaces/inkscape"
   width="250.60699mm"
   height="106.937mm"
   viewBox="0 0 250.60699 106.937"
   version="1.1"
   id="svg726"
   inkscape:version="0.92.4 (5da689c313, 2019-01-14)"
   sodipodi:docname="matrix_logo.svg">
  <defs
     id="defs720">
    <filter
       style="color-interpolation-filters:sRGB"
       inkscape:label="Silhouette"
       id="filter2068">
      <feFlood
         flood-opacity="1"
         flood-color="rgb(255,255,255)"
         result="flood"
         id="feFlood2062" />
      <feComposite
         in="flood"
         in2="SourceGraphic"
         operator="in"
         result="composite"
         id="feComposite2064" />
      <feGaussianBlur
         stdDeviation="0.01"
         id="feGaussianBlur2066"
         result="fbSourceGraphic" />
      <feColorMatrix
         result="fbSourceGraphicAlpha"
         in="fbSourceGraphic"
         values="0 0 0 -1 0 0 0 0 -1 0 0 0 0 -1 0 0 0 0 1 0"
         id="feColorMatrix2126" />
      <feFlood
         id="feFlood2128"
         flood-opacity="1"
         flood-color="rgb(255,255,255)"
         result="flood"
         in="fbSourceGraphic" />
      <feComposite
         in2="fbSourceGraphic"
         id="feComposite2130"
         in="flood"
         operator="in"
         result="composite" />
      <feGaussianBlur
         id="feGaussianBlur2132"
         stdDeviation="0.01"
         result="fbSourceGraphic" />
      <feColorMatrix
         result="fbSourceGraphicAlpha"
         in="fbSourceGraphic"
         values="0 0 0 -1 0 0 0 0 -1 0 0 0 0 -1 0 0 0 0 1 0"
         id="feColorMatrix2190" />
      <feFlood
         id="feFlood2192"
         flood-opacity="1"
         flood-color="rgb(255,255,255)"
         result="flood"
         in="fbSourceGraphic" />
      <feComposite
         in2="fbSourceGraphic"
         id="feComposite2194"
         in="flood"
         operator="in"
         result="composite" />
      <feGaussianBlur
         id="feGaussianBlur2196"
         stdDeviation="0.01"
         result="fbSourceGraphic" />
      <feColorMatrix
         result="fbSourceGraphicAlpha"
         in="fbSourceGraphic"
         values="0 0 0 -1 0 0 0 0 -1 0 0 0 0 -1 0 0 0 0 1 0"
         id="feColorMatrix2254" />
      <feFlood
         id="feFlood2256"
         flood-opacity="1"
         flood-color="rgb(255,255,255)"
         result="flood"
         in="fbSourceGraphic" />
      <feComposite
         in2="fbSourceGraphic"
         id="feComposite2258"
         in="flood"
         operator="in"
         result="composite" />
      <feGaussianBlur
         id="feGaussianBlur2260"
         stdDeviation="0.01"
         result="fbSourceGraphic" />
      <feColorMatrix
         result="fbSourceGraphicAlpha"
         in="fbSourceGraphic"
         values="0 0 0 -1 0 0 0 0 -1 0 0 0 0 -1 0 0 0 0 1 0"
         id="feColorMatrix2318" />
      <feFlood
         id="feFlood2320"
         flood-opacity="1"
         flood-color="rgb(255,255,255)"
         result="flood"
         in="fbSourceGraphic" />
      <feComposite
         in2="fbSourceGraphic"
         id="feComposite2322"
         in="flood"
         operator="in"
         result="composite" />
      <feGaussianBlur
         id="feGaussianBlur2324"
         stdDeviation="0.01"
         result="fbSourceGraphic" />
      <feColorMatrix
         result="fbSourceGraphicAlpha"
         in="fbSourceGraphic"
         values="0 0 0 -1 0 0 0 0 -1 0 0 0 0 -1 0 0 0 0 1 0"
         id="feColorMatrix2446" />
      <feFlood
         id="feFlood2448"
         flood-opacity="1"
         flood-color="rgb(255,255,255)"
         result="flood"
         in="fbSourceGraphic" />
      <feComposite
         in2="fbSourceGraphic"
         id="feComposite2450"
         in="flood"
         operator="in"
         result="composite" />
      <feGaussianBlur
         id="feGaussianBlur2452"
         stdDeviation="0.01"
         result="fbSourceGraphic" />
      <feColorMatrix
         result="fbSourceGraphicAlpha"
         in="fbSourceGraphic"
         values="0 0 0 -1 0 0 0 0 -1 0 0 0 0 -1 0 0 0 0 1 0"
         id="feColorMatrix2510" />
      <feFlood
         id="feFlood2512"
         flood-opacity="1"
         flood-color="rgb(255,255,255)"
         result="flood"
         in="fbSourceGraphic" />
      <feComposite
         in2="fbSourceGraphic"
         id="feComposite2514"
         in="flood"
         operator="in"
         result="composite" />
      <feGaussianBlur
         id="feGaussianBlur2516"
         stdDeviation="0.01"
         result="fbSourceGraphic" />
      <feColorMatrix
         result="fbSourceGraphicAlpha"
         in="fbSourceGraphic"
         values="0 0 0 -1 0 0 0 0 -1 0 0 0 0 -1 0 0 0 0 1 0"
         id="feColorMatrix2574" />
      <feFlood
         id="feFlood2576"
         flood-opacity="1"
         flood-color="rgb(255,255,255)"
         result="flood"
         in="fbSourceGraphic" />
      <feComposite
         in2="fbSourceGraphic"
         id="feComposite2578"
         in="flood"
         operator="in"
         result="composite" />
      <feGaussianBlur
         id="feGaussianBlur2580"
         stdDeviation="0.01"
         result="fbSourceGraphic" />
      <feColorMatrix
         result="fbSourceGraphicAlpha"
         in="fbSourceGraphic"
         values="0 0 0 -1 0 0 0 0 -1 0 0 0 0 -1 0 0 0 0 1 0"
         id="feColorMatrix2638" />
      <feFlood
         id="feFlood2640"
         flood-opacity="1"
         flood-color="rgb(255,255,255)"
         result="flood"
         in="fbSourceGraphic" />
      <feComposite
         in2="fbSourceGraphic"
         id="feComposite2642"
         in="flood"
         operator="in"
         result="composite" />
      <feGaussianBlur
         id="feGaussianBlur2644"
         stdDeviation="0.01"
         result="fbSourceGraphic" />
      <feColorMatrix
         result="fbSourceGraphicAlpha"
         in="fbSourceGraphic"
         values="0 0 0 -1 0 0 0 0 -1 0 0 0 0 -1 0 0 0 0 1 0"
         id="feColorMatrix2702" />
      <feFlood
         id="feFlood2704"
         flood-opacity="1"
         flood-color="rgb(255,255,255)"
         result="flood"
         in="fbSourceGraphic" />
      <feComposite
         in2="fbSourceGraphic"
         id="feComposite2706"
         in="flood"
         operator="in"
         result="composite" />
      <feGaussianBlur
         id="feGaussianBlur2708"
         stdDeviation="0.01" />
    </filter>
  </defs>
  <sodipodi:namedview
     id="base"
     pagecolor="#ffffff"
     bordercolor="#666666"
     borderopacity="1.0"
     inkscape:pageopacity="0.0"
     inkscape:pageshadow="2"
     inkscape:zoom="0.35"
     inkscape:cx="400"
     inkscape:cy="560"
     inkscape:document-units="mm"
     inkscape:current-layer="layer1"
     showgrid="false"
     inkscape:window-width="1920"
     inkscape:window-height="1017"
     inkscape:window-x="-8"
     inkscape:window-y="-8"
     inkscape:window-maximized="1" />
  <metadata
     id="metadata723">
    <rdf:RDF>
      <cc:Work
         rdf:about="">
        <dc:format>image/svg+xml</dc:format>
        <dc:type
           rdf:resource="http://purl.org/dc/dcmitype/StillImage" />
        <dc:title></dc:title>
      </cc:Work>
    </rdf:RDF>
  </metadata>
  <g
     inkscape:label="Ebene 1"
     inkscape:groupmode="layer"
     id="layer1"
     transform="translate(0,-190.063)">
    <path
       inkscape:connector-curvature="0"
       style="stroke:#ffffff;stroke-width:4;stroke-linejoin:round;stroke-opacity:0.5;paint-order:stroke;filter:url(#filter2068)"
       d="M 78.931252,33.680859 V 370.48945 h 32.005858 v -7.71093 H 87.806252 V 41.391796 h 23.124998 v -7.710937 z m 757.312498,0.002 v 7.708984 h 23.13086 V 362.77852 h -23.13086 v 7.71093 h 32 V 33.682812 Z M 647.86094,97.505078 v 27.175782 l 33,0.008 V 97.505078 Z m -164.26953,9.757812 v 36.01367 h -19.97852 v 22.07227 h 19.97852 v 70.85742 c 0,6.044 1.00548,10.92467 3.02148,14.63867 2.012,3.717 4.76205,6.58666 8.24805,8.59766 3.484,2.016 7.51103,3.3675 12.08203,4.0625 4.568,0.698 9.40853,1.04883 14.51953,1.04883 3.263,0 6.593,-0.0815 10,-0.23047 3.406,-0.158 6.50497,-0.46469 9.29297,-0.92969 v -25.55859 c -1.548,0.308 -3.17395,0.54526 -4.87695,0.69726 -1.705,0.156 -3.48475,0.23047 -5.34375,0.23047 -5.576,0 -9.29635,-0.92811 -11.15235,-2.78711 -1.86,-1.857 -2.78711,-5.57544 -2.78711,-11.14844 v -59.47851 h 24.16016 v -22.07227 h -24.16406 v -36.01367 z m -82.46875,32.75977 c -6.66,0 -13.28324,0.66156 -19.86524,1.97656 -6.585,1.318 -12.50553,3.52409 -17.76953,6.62109 -5.268,3.101 -9.60672,7.20341 -13.01172,12.31641 l -0.01,0.002 c -3.412,5.108 -5.34464,11.53925 -5.80664,19.28125 h 33 c 0.617,-6.503 2.78985,-11.15145 6.50586,-13.93945 3.71799,-2.788 8.82798,-4.18359 15.33398,-4.18359 2.939,0 5.69105,0.19807 8.24805,0.58007 2.554,0.389 4.80128,1.16322 6.73828,2.32422 1.935,1.161 3.48353,2.79086 4.64453,4.88086 1.162,2.09 1.74219,4.91852 1.74219,8.47852 0.152,3.41 -0.85453,6.00415 -3.01953,7.78515 -2.171,1.783 -5.11013,3.13546 -8.82813,4.06446 -3.717,0.929 -7.9783,1.62775 -12.7793,2.09375 -4.803,0.464 -9.68167,1.08542 -14.63867,1.85742 -4.957,0.779 -9.87395,1.82172 -14.75195,3.13672 -4.881,1.316 -9.21677,3.28987 -13.00977,5.92187 -3.8,2.636 -6.89492,6.15917 -9.29492,10.57617 -2.404,4.41 -3.60352,10.02685 -3.60352,16.83985 10e-6,6.193 1.04572,11.5422 3.13672,16.0332 2.091,4.491 4.99489,8.20849 8.71289,11.14649 3.717,2.948 8.05372,5.11476 13.01172,6.50976 4.956,1.392 10.29825,2.08985 16.03125,2.08985 7.435,0 14.71675,-1.087 21.84375,-3.25 7.12,-2.169 13.31699,-5.96472 18.58399,-11.38672 0.152,2.015 0.4225,3.99082 0.8125,5.92382 0.385,1.938 0.89072,3.83336 1.51172,5.69336 h 33.45507 c -1.55,-2.477 -2.63695,-6.19529 -3.25195,-11.15429 -0.621,-4.956 -0.92969,-10.13841 -0.92969,-15.56641 v -62.49419 c 0,-7.281 -1.6259,-13.12897 -4.8789,-17.54297 -3.254,-4.412 -7.43588,-7.86089 -12.54688,-10.33789 -5.112,-2.478 -10.76594,-4.145 -16.96093,-5 -6.196,-0.849 -12.31347,-1.27734 -18.35547,-1.27734 z m 225.59765,0 c -4.183,0 -8.21403,0.62042 -12.08203,1.85742 -3.876,1.243 -7.51687,2.98651 -10.92187,5.22851 -3.408,2.246 -6.42655,4.95886 -9.06055,8.13086 -2.636,3.178 -4.72548,6.6218 -6.27149,10.3418 h -0.46484 V 143.27656 H 556.5543 V 263.3918 h 32.99218 v -54.13282 c 0,-5.42 0.542,-10.45656 1.625,-15.10156 1.083,-4.648 2.90594,-8.71222 5.46094,-12.19922 2.557,-3.486 5.92542,-6.23209 10.10742,-8.24609 4.18,-2.011 9.29103,-3.02148 15.33203,-3.02148 2.01401,0 4.10344,0.1166 6.27344,0.34961 2.166,0.23 4.02517,0.50245 5.57617,0.81445 v -30.66992 c -2.636,-0.773 -5.03317,-1.16211 -7.20117,-1.16211 z m -412.61523,0.002 c -7.898,0 -14.91035,1.70737 -21.02735,5.10937 -6.121,3.40601 -11.34559,8.21525 -15.68359,14.40626 h -0.46289 v -16.26373 h -31.14453 v 120.11719 h 32.98242 v -69.70117 c 0,-5.885 0.84969,-10.64511 2.55469,-14.28711 1.704,-3.637 3.7542,-6.42528 6.1582,-8.36328 2.399,-1.933 4.87955,-3.25222 7.43555,-3.94922 2.553,-0.699 4.60525,-1.04688 6.15625,-1.04688 5.265,0 9.25384,0.89493 11.96484,2.66993 2.709,1.784 4.6466,4.14789 5.8086,7.08789 1.164,2.945 1.82051,6.15948 1.97851,9.64648 0.149,3.483 0.22852,7.00831 0.22852,10.57031 v 67.375 h 33 v -66.91015 c 0,-3.717 0.26945,-7.39716 0.81445,-11.03516 0.541,-3.642 1.62595,-6.89272 3.25195,-9.76172 1.625,-2.862 3.87028,-5.18865 6.73828,-6.97265 2.866,-1.775 6.62158,-2.66993 11.26758,-2.66993 4.646,0 8.32611,0.77927 11.03711,2.32227 2.707,1.55 4.7632,3.64244 6.1582,6.27344 1.39401,2.637 2.24169,5.73297 2.55469,9.29297 0.311,3.565 0.46485,7.35976 0.46485,11.38476 v 68.07422 h 33.00586 v -80.38477 c 0,-7.74699 -1.08691,-14.36514 -3.25391,-19.86914 -2.173,-5.494 -5.19155,-9.94742 -9.06055,-13.35742 -3.873,-3.407 -8.52145,-5.88459 -13.93945,-7.43359 -5.426,-1.549 -11.3072,-2.32422 -17.6582,-2.32422 -8.366,0 -15.60761,2.01602 -21.72461,6.04102 -6.121,4.027 -10.96149,8.67445 -14.52149,13.93945 -3.253,-7.436 -8.01701,-12.62141 -14.29101,-15.56641 -6.272,-2.94 -13.20497,-4.41406 -20.79297,-4.41406 z m 466.75586,3.24414 -33,0.008 v 120.11719 h 33 z m 17.18554,0.008 39.4961,56.92383 -43.21289,63.19336 h 36.93945 l 25.09375,-37.86914 25.0918,37.86914 h 37.64062 l -44.37695,-63.89282 39.49609,-56.22461 H 777.73789 L 756.82773,174.6418 735.6832,143.27656 Z m -276.97265,61.33399 v 12.32226 c 0,1.858 -0.19608,4.3366 -0.58008,7.4336 -0.388,3.102 -1.43472,6.15482 -3.13672,9.17383 -1.708,3.023 -4.33939,5.61915 -7.90039,7.78515 -3.566,2.171 -8.59656,3.25391 -15.10156,3.25391 -2.634,0 -5.19102,-0.23322 -7.66602,-0.69922 -2.482,-0.462 -4.64786,-1.2765 -6.50586,-2.4375 -1.858,-1.161 -3.33201,-2.74863 -4.41601,-4.76563 -1.085,-2.009 -1.62696,-4.48968 -1.62696,-7.42968 0,-3.097 0.54196,-5.65397 1.62696,-7.66797 1.084,-2.015 2.51483,-3.683 4.29883,-5 1.779,-1.316 3.86943,-2.35967 6.27343,-3.13867 2.398,-0.771 4.83836,-1.39643 7.31836,-1.85743 2.432,-0.465 5.06422,-0.84911 7.69922,-1.16211 2.633,-0.308 5.14878,-0.6971 7.55078,-1.16211 2.399,-0.46599 4.64633,-1.04423 6.73633,-1.74023 h 0.19922 c 2.092,-0.698 3.83447,-1.6652 5.23047,-2.9082 z"
       id="path2"
       transform="matrix(0.26458333,0,0,0.26458333,-1.2544456e-7,190.06327)" />
  </g>
</svg>
